HIERARCHY
ROOT Hips
{
	OFFSET 0.000000 71.427986 0.000000
	CHANNELS 6 Xposition Yposition Zposition Xrotation Yrotation Zrotation
	JOINT Pelvis
	{
		OFFSET 0.000000 0.000000 0.000000
		CHANNELS 3 Xrotation Yrotation Zrotation
		JOINT LeftUpLeg
		{
			OFFSET 6.797100 -2.508499 -1.318700
			CHANNELS 3 Xrotation Yrotation Zrotation
			JOINT LeftLeg
			{
				OFFSET 0.069008 -29.241863 0.690200
				CHANNELS 3 Xrotation Yrotation Zrotation
				JOINT LeftFoot
				{
					OFFSET -0.069008 -29.568123 -0.266800
					CHANNELS 3 Xrotation Yrotation Zrotation
					JOINT LeftToeBase
					{
						OFFSET 3.145500 -8.631000 16.059900
						CHANNELS 3 Xrotation Yrotation Zrotation
						End Site
						{
							OFFSET 0.000000 18.501587 0.000000
						}
					}
				}
			}
			JOINT Left_ShortSleeve
			{
				OFFSET 0.265923 -10.480953 1.153800
				CHANNELS 3 Xrotation Yrotation Zrotation
				End Site
				{
					OFFSET 1.725763 19.823879 0.000000
				}
			}
		}
		JOINT RightUpLeg
		{
			OFFSET -6.797100 -2.508499 -1.318700
			CHANNELS 3 Xrotation Yrotation Zrotation
			JOINT RightLeg
			{
				OFFSET -0.082453 -29.241932 0.688000
				CHANNELS 3 Xrotation Yrotation Zrotation
				JOINT RightFoot
				{
					OFFSET 0.082453 -29.568058 -0.264600
					CHANNELS 3 Xrotation Yrotation Zrotation
					JOINT RightToeBase
					{
						OFFSET -3.115300 -8.682800 16.113400
						CHANNELS 3 Xrotation Yrotation Zrotation
						End Site
						{
							OFFSET 0.000000 18.567114 0.000000
						}
					}
				}
			}
			JOINT Right_ShortSleeve
			{
				OFFSET -0.265923 -10.480953 1.153800
				CHANNELS 3 Xrotation Yrotation Zrotation
				End Site
				{
					OFFSET -1.725766 19.823910 0.000000
				}
			}
		}
	}
	JOINT Spine
	{
		OFFSET 0.000000 13.368103 0.470500
		CHANNELS 3 Xrotation Yrotation Zrotation
		JOINT Spine1
		{
			OFFSET 0.147000 13.837402 0.538800
			CHANNELS 3 Xrotation Yrotation Zrotation
			JOINT Spine2
			{
				OFFSET 0.168000 16.242897 -1.435500
				CHANNELS 3 Xrotation Yrotation Zrotation
				JOINT Neck
				{
					OFFSET 0.217200 18.631500 -1.679100
					CHANNELS 3 Xrotation Yrotation Zrotation
					JOINT Head
					{
						OFFSET 0.000000 6.599396 1.385900
						CHANNELS 3 Xrotation Yrotation Zrotation
						JOINT Hat
						{
							OFFSET -0.532200 27.220596 -10.096100
							CHANNELS 3 Xrotation Yrotation Zrotation
							End Site
							{
								OFFSET 0.000000 22.029861 0.000000
							}
						}
						JOINT HairD
						{
							OFFSET -10.777400 17.437393 -1.325900
							CHANNELS 3 Xrotation Yrotation Zrotation
							JOINT HairD1
							{
								OFFSET -3.290299 -11.051193 1.062200
								CHANNELS 3 Xrotation Yrotation Zrotation
								End Site
								{
									OFFSET 0.000000 11.579437 0.000000
								}
							}
						}
						JOINT HairB
						{
							OFFSET -10.777400 17.437393 1.467900
							CHANNELS 3 Xrotation Yrotation Zrotation
							JOINT HairB1
							{
								OFFSET -1.561200 -12.956299 3.590200
								CHANNELS 3 Xrotation Yrotation Zrotation
								End Site
								{
									OFFSET 0.000000 13.534866 0.000000
								}
							}
						}
						JOINT HairA
						{
							OFFSET 9.713100 17.437393 1.467900
							CHANNELS 3 Xrotation Yrotation Zrotation
							JOINT HairA1
							{
								OFFSET 1.561200 -12.956299 3.590200
								CHANNELS 3 Xrotation Yrotation Zrotation
								End Site
								{
									OFFSET 0.000000 13.534866 0.000000
								}
							}
						}
						JOINT HairC
						{
							OFFSET 9.713100 17.437393 -1.325900
							CHANNELS 3 Xrotation Yrotation Zrotation
							JOINT HairC1
							{
								OFFSET 3.290300 -11.051193 1.062200
								CHANNELS 3 Xrotation Yrotation Zrotation
								End Site
								{
									OFFSET 0.000000 11.579437 0.000000
								}
							}
						}
					}
				}
				JOINT LeftShoulder
				{
					OFFSET 5.101800 15.108002 -2.763700
					CHANNELS 3 Xrotation Yrotation Zrotation
					JOINT LeftArm
					{
						OFFSET 9.825497 2.506317 -1.597400
						CHANNELS 3 Xrotation Yrotation Zrotation
						JOINT LeftForeArm
						{
							OFFSET 21.966244 0.000000 0.000000
							CHANNELS 3 Xrotation Yrotation Zrotation
							JOINT LeftHand
							{
								OFFSET 33.879036 0.000000 0.000000
								CHANNELS 3 Xrotation Yrotation Zrotation
								JOINT LeftHandThumb1
								{
									OFFSET 6.715286 -2.359680 3.363841
									CHANNELS 3 Xrotation Yrotation Zrotation
									JOINT LeftHandThumb2
									{
										OFFSET 2.507072 -1.447464 1.447461
										CHANNELS 3 Xrotation Yrotation Zrotation
										JOINT LeftHandThumb3
										{
											OFFSET 2.898338 -1.673355 1.673357
											CHANNELS 3 Xrotation Yrotation Zrotation
											End Site
											{
												OFFSET -0.295959 3.727692 -0.131651
											}
										}
									}
								}
								JOINT LeftHandIndex1
								{
									OFFSET 14.190811 -0.254547 3.840278
									CHANNELS 3 Xrotation Yrotation Zrotation
									JOINT LeftHandIndex2
									{
										OFFSET 3.551727 0.000000 -0.000000
										CHANNELS 3 Xrotation Yrotation Zrotation
										JOINT LeftHandIndex3
										{
											OFFSET 2.894196 0.000000 0.000000
											CHANNELS 3 Xrotation Yrotation Zrotation
											End Site
											{
												OFFSET -1.000603 2.690872 0.366626
											}
										}
									}
								}
								JOINT LeftHandMiddle1
								{
									OFFSET 13.776489 0.000000 0.000000
									CHANNELS 3 Xrotation Yrotation Zrotation
									JOINT LeftHandMiddle2
									{
										OFFSET 3.438232 0.000000 0.000000
										CHANNELS 3 Xrotation Yrotation Zrotation
										JOINT LeftHandMiddle3
										{
											OFFSET 3.691551 0.000000 0.000000
											CHANNELS 3 Xrotation Yrotation Zrotation
											End Site
											{
												OFFSET -1.082298 3.499527 0.457670
											}
										}
									}
								}
								JOINT LeftHandRing1
								{
									OFFSET 13.966164 -0.268127 -3.067488
									CHANNELS 3 Xrotation Yrotation Zrotation
									JOINT LeftHandRing2
									{
										OFFSET 3.162567 0.000000 0.000000
										CHANNELS 3 Xrotation Yrotation Zrotation
										JOINT LeftHandRing3
										{
											OFFSET 3.324348 0.000000 0.000000
											CHANNELS 3 Xrotation Yrotation Zrotation
											End Site
											{
												OFFSET -0.861900 3.184998 0.405154
											}
										}
									}
								}
								JOINT LeftHandPinky1
								{
									OFFSET 13.131393 -0.168503 -5.746925
									CHANNELS 3 Xrotation Yrotation Zrotation
									JOINT LeftHandPinky2
									{
										OFFSET 2.849182 0.000000 0.000000
										CHANNELS 3 Xrotation Yrotation Zrotation
										JOINT LeftHandPinky3
										{
											OFFSET 2.805038 0.000000 0.000000
											CHANNELS 3 Xrotation Yrotation Zrotation
											End Site
											{
												OFFSET -0.882500 2.642609 0.325652
											}
										}
									}
								}
							}
							JOINT Left_Sleeve
							{
								OFFSET 6.592125 -0.646545 0.805568
								CHANNELS 3 Xrotation Yrotation Zrotation
								End Site
								{
									OFFSET -0.000179 20.275787 -0.000000
								}
							}
						}
					}
				}
				JOINT RightShoulder
				{
					OFFSET -5.731700 15.108002 -2.763700
					CHANNELS 3 Xrotation Yrotation Zrotation
					JOINT RightArm
					{
						OFFSET -9.825497 2.506317 -1.597400
						CHANNELS 3 Xrotation Yrotation Zrotation
						JOINT RightForeArm
						{
							OFFSET -21.966242 0.000000 0.000000
							CHANNELS 3 Xrotation Yrotation Zrotation
							JOINT RightHand
							{
								OFFSET -33.879032 0.000000 0.000000
								CHANNELS 3 Xrotation Yrotation Zrotation
								JOINT RightHandThumb1
								{
									OFFSET -6.715286 -2.359680 3.363841
									CHANNELS 3 Xrotation Yrotation Zrotation
									JOINT RightHandThumb2
									{
										OFFSET -2.507072 -1.447464 1.447461
										CHANNELS 3 Xrotation Yrotation Zrotation
										JOINT RightHandThumb3
										{
											OFFSET -2.898338 -1.673355 1.673357
											CHANNELS 3 Xrotation Yrotation Zrotation
											End Site
											{
												OFFSET 0.295959 3.727692 -0.131651
											}
										}
									}
								}
								JOINT RightHandIndex1
								{
									OFFSET -14.190811 -0.254547 3.840278
									CHANNELS 3 Xrotation Yrotation Zrotation
									JOINT RightHandIndex2
									{
										OFFSET -3.551727 0.000000 -0.000000
										CHANNELS 3 Xrotation Yrotation Zrotation
										JOINT RightHandIndex3
										{
											OFFSET -2.894196 0.000000 0.000000
											CHANNELS 3 Xrotation Yrotation Zrotation
											End Site
											{
												OFFSET 1.000603 2.690872 0.366626
											}
										}
									}
								}
								JOINT RightHandMiddle1
								{
									OFFSET -13.776489 0.000000 0.000000
									CHANNELS 3 Xrotation Yrotation Zrotation
									JOINT RightHandMiddle2
									{
										OFFSET -3.438232 0.000000 0.000000
										CHANNELS 3 Xrotation Yrotation Zrotation
										JOINT RightHandMiddle3
										{
											OFFSET -3.691551 0.000000 0.000000
											CHANNELS 3 Xrotation Yrotation Zrotation
											End Site
											{
												OFFSET 1.082298 3.499527 0.457670
											}
										}
									}
								}
								JOINT RightHandRing1
								{
									OFFSET -13.966164 -0.268127 -3.067488
									CHANNELS 3 Xrotation Yrotation Zrotation
									JOINT RightHandRing2
									{
										OFFSET -3.162567 0.000000 0.000000
										CHANNELS 3 Xrotation Yrotation Zrotation
										JOINT RightHandRing3
										{
											OFFSET -3.324348 0.000000 0.000000
											CHANNELS 3 Xrotation Yrotation Zrotation
											End Site
											{
												OFFSET 0.861900 3.184998 0.405154
											}
										}
									}
								}
								JOINT RightHandPinky1
								{
									OFFSET -13.131393 -0.168503 -5.746925
									CHANNELS 3 Xrotation Yrotation Zrotation
									JOINT RightHandPinky2
									{
										OFFSET -2.849182 0.000000 0.000000
										CHANNELS 3 Xrotation Yrotation Zrotation
										JOINT RightHandPinky3
										{
											OFFSET -2.805038 0.000000 0.000000
											CHANNELS 3 Xrotation Yrotation Zrotation
											End Site
											{
												OFFSET 0.882500 2.642609 0.325652
											}
										}
									}
								}
							}
							JOINT Right_Sleeve
							{
								OFFSET -6.592125 -0.646545 0.805568
								CHANNELS 3 Xrotation Yrotation Zrotation
								End Site
								{
									OFFSET 0.000179 20.275787 -0.000000
								}
							}
						}
					}
				}
				JOINT Bind_Right_JacketString
				{
					OFFSET -3.534800 11.969597 7.200700
					CHANNELS 3 Xrotation Yrotation Zrotation
					JOINT Bind_Right_JacketString1
					{
						OFFSET -0.319900 -6.102600 2.794100
						CHANNELS 3 Xrotation Yrotation Zrotation
						End Site
						{
							OFFSET 0.000000 6.719452 0.000000
						}
					}
				}
				JOINT Bind_Left_JacketString
				{
					OFFSET 2.904800 11.969597 7.200700
					CHANNELS 3 Xrotation Yrotation Zrotation
					JOINT Bind_Left_JacketString1
					{
						OFFSET 0.364800 -5.904503 3.186800
						CHANNELS 3 Xrotation Yrotation Zrotation
						End Site
						{
							OFFSET 0.000000 6.719513 0.000000
						}
					}
				}
				JOINT HairE
				{
					OFFSET 5.915200 17.612701 -11.592200
					CHANNELS 3 Xrotation Yrotation Zrotation
					JOINT HairE1
					{
						OFFSET 0.289200 -7.171898 -1.284500
						CHANNELS 3 Xrotation Yrotation Zrotation
						End Site
						{
							OFFSET 0.000000 7.291756 0.000000
						}
					}
				}
				JOINT HairF
				{
					OFFSET -0.864800 17.612701 -11.592200
					CHANNELS 3 Xrotation Yrotation Zrotation
					JOINT HairF1
					{
						OFFSET 0.000000 -14.087097 -2.127501
						CHANNELS 3 Xrotation Yrotation Zrotation
						End Site
						{
							OFFSET 0.000000 14.246841 0.000000
						}
					}
				}
				JOINT HairG
				{
					OFFSET -8.087700 17.612701 -11.592200
					CHANNELS 3 Xrotation Yrotation Zrotation
					JOINT HairG1
					{
						OFFSET -0.293600 -6.081398 -0.910100
						CHANNELS 3 Xrotation Yrotation Zrotation
						End Site
						{
							OFFSET 0.000000 6.156120 0.000000
						}
					}
				}
			}
		}
	}
	JOINT Pouch
	{
		OFFSET 0.000000 4.394501 10.847300
		CHANNELS 3 Xrotation Yrotation Zrotation
		End Site
		{
			OFFSET 0.000000 21.880577 0.000000
		}
	}
	JOINT Bag
	{
		OFFSET -13.229000 4.813004 -0.593300
		CHANNELS 3 Xrotation Yrotation Zrotation
		End Site
		{
			OFFSET 0.000000 21.880577 0.000000
		}
	}
	JOINT OccupyGuyFacialAnim_Joint
	{
		OFFSET 1.000000 -70.206398 -1.655000
		CHANNELS 3 Xrotation Yrotation Zrotation
		End Site
		{
			OFFSET 0.000000 21.880577 0.000000
		}
	}
}
MOTION
Frames: 5
Frame Time: 0.016667
0.047009 66.557220 1.367554 22.681945 -0.061499 -6.879526 0.000000 -0.000000 -0.000000 -52.583704 0.009458 -1.884763 73.872444 -2.712737 3.303050 -3.336231 1.431403 7.999746 -0.000001 -0.000000 -0.000000 0.000002 0.000000 0.000000 -33.413077 -12.092510 0.910460 36.633091 -3.633709 2.691953 -24.816526 -1.365120 3.632607 0.000000 0.000001 -0.000000 0.000001 -0.000000 -0.000000 8.950784 2.984834 0.443942 -0.486221 1.376179 -0.738725 -0.484352 1.393122 -0.752146 -12.183787 0.616442 0.895270 -13.200947 5.313709 -4.930407 0.000000 -0.000000 -0.000001 0.000000 -0.000000 -0.000001 0.000000 -0.000000 -0.000000 0.000000 -0.000000 0.000000 0.000000 -0.000001 -0.000001 0.000000 -0.000000 0.000000 0.000000 -0.000001 -0.000001 0.000000 -0.000000 -0.000001 0.000000 -0.000000 -0.000001 0.800068 -1.053363 -19.763345 13.552899 -1.213103 -48.473047 0.000000 -65.396848 0.000026 -23.458459 12.668243 -19.629217 74.823992 -40.508052 61.030233 25.114385 4.278446 -82.291833 0.000001 0.000001 -0.000001 5.834366 7.878522 -78.812890 5.407296 5.834250 -85.642840 0.000001 0.000001 -0.000002 4.932099 8.202284 -90.163394 4.700894 5.737282 -78.644082 0.000001 0.000000 -0.000003 4.402369 8.246139 -91.663181 5.862438 5.851068 -90.111512 -0.000000 0.000001 0.000000 5.304522 8.410028 -100.449263 2.535404 4.823625 -55.434625 -0.000000 -0.000001 0.000001 0.000000 -0.000000 0.000000 0.203545 7.873812 19.585052 11.893541 -9.449226 48.231616 0.000014 63.146984 -0.000001 -2.319518 -16.349540 7.973142 47.809736 35.835339 -5.333800 34.631361 -33.014478 35.094612 0.000000 -0.000001 -0.000000 5.182531 -7.113290 78.876247 4.422124 -4.651229 87.104050 0.000006 -0.000000 0.000005 7.506155 -6.722324 94.665063 4.366851 -4.648129 86.421946 0.000001 -0.000000 -0.000001 5.682764 -6.829395 102.073878 3.638056 -4.544541 77.346244 0.000003 0.000001 -0.000003 5.373755 -6.885373 99.411771 1.706933 -3.605106 50.661330 -0.000002 0.000001 -0.000001 0.000001 -0.000000 0.000001 -0.000002 0.000000 0.000000 -0.000001 0.000000 0.000001 -0.000002 0.000000 0.000000 -0.000002 0.000000 0.000000 -0.000002 0.000000 0.000000 -0.000001 0.000000 0.000001 -0.000002 0.000000 0.000000 -0.000002 0.000000 0.000000 -0.000002 0.000000 0.000000 -0.000001 0.000000 0.000001 0.000000 -0.000000 -0.000000 0.000000 -0.000000 -0.000000 0.000000 -0.000000 -0.000000 
-0.358074 66.337410 2.882551 22.990950 -0.057018 -6.715871 0.000000 0.000000 0.000000 -55.665113 0.829945 -2.422448 73.232448 -3.920251 3.300872 -4.821318 2.169223 8.506585 0.000000 0.000001 -0.000000 0.000001 0.000000 -0.000000 -32.222503 -12.168703 1.228931 36.872868 -3.507731 2.595815 -26.631111 -1.398228 3.545508 0.000000 -0.000002 -0.000000 -0.000001 -0.000000 -0.000000 8.724384 3.196959 0.119775 -0.496557 1.450543 -0.731988 -0.477006 1.478102 -0.752144 -12.234351 0.523662 0.936670 -13.473428 5.168247 -4.687937 0.000000 0.000001 0.000000 0.000000 0.000001 0.000000 0.000000 0.000001 0.000000 0.000000 0.000001 0.000000 -0.000000 0.000001 0.000000 0.000000 0.000001 0.000000 -0.000000 0.000001 0.000000 0.000000 0.000001 0.000000 0.000000 0.000001 0.000000 0.809861 -1.055531 -19.698327 13.400035 -1.470154 -48.429364 -0.000007 -65.609281 -0.000013 -23.708579 13.002233 -19.426738 74.823998 -40.508052 61.030233 25.166956 4.373164 -82.354391 0.000000 0.000004 -0.000001 5.840199 7.879102 -78.844985 5.407292 5.834248 -85.642840 0.000001 0.000000 -0.000000 4.933145 8.202458 -90.173694 4.700467 5.737197 -78.639820 0.000000 0.000001 -0.000001 4.398797 8.245228 -91.628456 5.862144 5.851065 -90.108650 -0.000002 0.000000 0.000000 5.300735 8.409642 -100.413439 2.530730 4.820413 -55.379013 -0.000001 -0.000001 -0.000001 -0.000000 0.000000 -0.000000 0.179713 8.056688 19.469470 11.883965 -9.750505 48.141017 -0.000005 64.191450 0.000015 -2.283718 -16.744885 8.133054 47.809733 35.835339 -5.333804 34.631361 -33.014478 35.094622 -0.000000 0.000001 -0.000001 5.188558 -7.114466 78.876527 4.422124 -4.651232 87.104057 -0.000001 -0.000003 0.000005 7.510152 -6.722937 94.643192 4.366596 -4.648103 86.418818 0.000006 -0.000000 -0.000001 5.680091 -6.829961 102.040335 3.638053 -4.544554 77.346244 -0.000001 0.000000 -0.000002 5.371712 -6.885667 99.386397 1.706654 -3.604887 50.656972 -0.000000 0.000001 -0.000005 0.000001 0.000001 0.000000 0.000001 0.000000 -0.000001 0.000001 0.000000 -0.000002 0.000001 0.000000 -0.000001 0.000001 0.000000 -0.000001 0.000001 0.000000 -0.000001 0.000001 0.000000 -0.000001 0.000001 0.000000 -0.000001 0.000001 0.000000 -0.000001 0.000001 0.000000 -0.000001 0.000001 0.000000 -0.000001 0.000000 0.000000 0.000000 0.000000 0.000000 0.000000 0.000000 0.000000 0.000000 
-0.762112 66.121681 4.395159 23.303077 -0.049709 -6.545793 -0.000001 0.000000 0.000000 -58.962373 1.520166 -2.694900 72.547298 -5.120810 3.304257 -5.668098 3.112950 7.111755 -0.000002 -0.000001 0.000000 -0.000002 0.000000 0.000001 -30.881444 -12.392022 1.594728 36.822322 -3.310283 2.364003 -28.337926 -1.412778 3.451717 0.000000 0.000001 -0.000000 -0.000001 -0.000000 -0.000000 8.499785 3.404538 -0.209482 -0.507235 1.525118 -0.724556 -0.469546 1.563697 -0.748852 -12.284888 0.430358 0.978019 -13.746414 5.022101 -4.445271 0.000001 0.000000 -0.000000 0.000001 0.000000 -0.000000 0.000001 0.000000 -0.000000 0.000001 0.000000 -0.000000 0.000001 0.000000 -0.000000 0.000001 0.000000 -0.000000 0.000001 0.000000 -0.000000 0.000001 0.000000 -0.000000 0.000001 0.000000 -0.000000 0.829647 -1.055379 -19.576796 13.303901 -1.693180 -48.524348 0.000019 -65.794311 0.000016 -24.000854 13.236738 -19.197107 74.823998 -40.508049 61.030233 25.309104 4.629890 -82.525624 -0.000000 0.000001 -0.000001 5.855892 7.880594 -78.934406 5.407293 5.834246 -85.642861 0.000001 -0.000000 -0.000000 4.936107 8.202949 -90.202668 4.699359 5.736976 -78.628735 0.000001 0.000001 -0.000001 4.389585 8.242861 -91.538844 5.861334 5.851067 -90.100700 0.000000 0.000000 0.000002 5.290384 8.408582 -100.315507 2.518110 4.811712 -55.228735 -0.000002 0.000001 0.000001 -0.000001 0.000001 -0.000001 0.162761 8.201813 19.240260 12.013084 -10.084084 48.107423 -0.000012 65.513235 0.000023 -2.194444 -17.182512 8.317053 47.809726 35.835349 -5.333802 34.631364 -33.014481 35.094612 -0.000001 -0.000001 0.000000 5.206657 -7.118004 78.877272 4.422131 -4.651226 87.104064 -0.000002 0.000001 0.000000 7.521393 -6.724551 94.584542 4.365932 -4.648073 86.410677 0.000000 -0.000000 0.000001 5.673234 -6.831418 101.953851 3.638502 -4.544638 77.351824 -0.000004 0.000001 -0.000001 5.371543 -6.885591 99.321107 1.705951 -3.604307 50.645791 -0.000000 0.000001 -0.000001 0.000002 0.000002 -0.000001 0.000003 0.000000 -0.000000 0.000003 0.000000 -0.000000 0.000003 0.000000 -0.000000 0.000003 0.000000 -0.000000 0.000003 0.000000 -0.000000 0.000003 0.000000 -0.000000 0.000003 0.000000 -0.000000 0.000003 0.000000 -0.000000 0.000003 0.000000 -0.000000 0.000003 0.000000 -0.000000 -0.000001 0.000000 0.000000 -0.000001 0.000000 0.000000 -0.000001 0.000000 0.000000 
-1.165842 65.882591 5.908594 23.642918 -0.050519 -6.348281 0.000001 -0.000000 -0.000000 -62.309282 2.086487 -2.800238 71.568177 -6.406791 3.269793 -5.992965 4.299517 4.620150 -0.000001 -0.000000 0.000000 -0.000003 0.000000 -0.000000 -29.501721 -12.717366 1.958404 36.650973 -3.032268 2.040182 -29.997771 -1.418387 3.368528 0.000000 -0.000001 0.000000 0.000000 -0.000001 -0.000001 8.270165 3.600384 -0.556207 -0.520805 1.601804 -0.710189 -0.460746 1.655477 -0.739868 -12.336269 0.331890 1.018790 -14.027055 4.875327 -4.190918 0.000000 -0.000000 -0.000001 0.000000 -0.000000 -0.000001 0.000000 -0.000000 -0.000001 0.000000 -0.000000 -0.000000 0.000000 -0.000000 -0.000000 0.000000 -0.000000 -0.000000 0.000000 -0.000000 -0.000000 0.000000 -0.000000 -0.000001 0.000000 -0.000000 -0.000001 0.857957 -1.055085 -19.402800 13.266422 -1.833221 -48.691633 0.000008 -65.913825 0.000009 -24.290243 13.359643 -18.989931 74.823992 -40.508052 61.030240 25.517165 5.007337 -82.781661 0.000001 0.000002 0.000001 5.878725 7.882586 -79.070887 5.407289 5.834247 -85.642834 0.000001 0.000001 -0.000003 4.940657 8.203706 -90.247262 4.697846 5.736674 -78.613599 0.000000 0.000001 -0.000001 4.377003 8.239614 -91.416345 5.860111 5.851067 -90.088754 0.000000 -0.000001 -0.000000 5.274997 8.406985 -100.169854 2.499669 4.798901 -55.008633 -0.000000 -0.000001 0.000003 0.000002 -0.000001 0.000000 0.154741 8.315183 18.934698 12.291669 -10.409287 48.204364 -0.000003 66.924468 -0.000018 -2.085133 -17.592960 8.432645 47.809736 35.835346 -5.333800 34.631361 -33.014478 35.094618 -0.000001 0.000000 0.000000 5.237268 -7.123823 78.883999 4.422131 -4.651235 87.104036 0.000002 -0.000000 0.000004 7.538636 -6.726857 94.499636 4.365032 -4.648008 86.399591 0.000003 0.000000 -0.000002 5.663831 -6.833377 101.835607 3.639155 -4.544777 77.360212 0.000003 -0.000000 0.000001 5.371752 -6.885409 99.231871 1.704980 -3.603530 50.630457 -0.000003 0.000000 -0.000001 -0.000002 0.000003 -0.000002 -0.000002 0.000000 0.000001 0.000001 0.000000 -0.000000 -0.000002 0.000000 0.000000 -0.000002 0.000000 0.000000 -0.000002 0.000000 0.000001 0.000001 0.000000 0.000000 -0.000002 0.000000 0.000000 -0.000002 0.000000 0.000000 -0.000002 0.000000 0.000001 0.000001 0.000000 0.000000 0.000001 -0.000000 -0.000000 0.000001 -0.000000 -0.000000 0.000001 -0.000000 -0.000000 
-1.570916 65.562973 7.429949 24.062487 -0.081582 -6.077714 -0.000001 -0.000000 -0.000000 -65.339591 2.676494 -3.170637 70.215779 -7.516045 3.117382 -7.754911 5.621576 4.154596 0.000001 0.000000 0.000000 -0.000002 0.000000 -0.000000 -28.307849 -13.101798 2.226102 36.703169 -2.643018 1.666975 -31.769307 -1.427352 3.310654 0.000000 -0.000001 0.000000 -0.000000 -0.000000 -0.000000 8.021034 3.768730 -0.947466 -0.542838 1.684605 -0.675692 -0.447988 1.765198 -0.714382 -12.390380 0.218419 1.057883 -14.330316 4.724050 -3.900795 0.000000 -0.000001 0.000000 0.000000 -0.000001 0.000000 0.000000 -0.000001 0.000000 0.000000 -0.000001 0.000001 0.000000 0.000001 -0.000000 0.000000 -0.000001 0.000001 0.000000 0.000001 -0.000000 0.000000 -0.000001 0.000000 0.000000 -0.000001 0.000000 0.892450 -1.054612 -19.190875 13.312127 -1.847641 -48.806951 0.000003 -65.962176 0.000011 -24.536280 13.414682 -18.850499 74.823992 -40.508059 61.030233 25.767544 5.464270 -83.098424 -0.000000 0.000003 0.000000 5.905989 7.884675 -79.244189 5.407293 5.834249 -85.642868 0.000001 0.000000 -0.000004 4.946502 8.204674 -90.304472 4.696199 5.736341 -78.597118 -0.000000 -0.000000 -0.000001 4.363294 8.236043 -91.282869 5.858597 5.851069 -90.073878 -0.000001 0.000000 0.000001 5.256080 8.404964 -99.990746 2.477530 4.783377 -54.743502 -0.000000 -0.000001 0.000003 0.000000 -0.000001 0.000000 0.153485 8.439833 18.609349 12.697675 -10.683099 48.523081 0.000010 68.139388 -0.000014 -2.018148 -17.890909 8.368094 47.809736 35.835339 -5.333800 34.631361 -33.014478 35.094618 0.000000 0.000000 0.000000 5.280357 -7.131947 78.896335 4.422138 -4.651228 87.104064 -0.000000 -0.000001 0.000002 7.560679 -6.729561 94.398924 4.364060 -4.647946 86.387509 -0.000002 -0.000000 -0.000003 5.653568 -6.835499 101.706728 3.639981 -4.544980 77.370607 -0.000002 0.000000 0.000001 5.372856 -6.885092 99.134657 1.703929 -3.602667 50.613761 0.000003 0.000002 -0.000001 -0.000002 0.000000 0.000001 0.000001 0.000000 -0.000000 0.000001 0.000000 -0.000001 0.000001 0.000000 0.000000 0.000001 0.000000 0.000000 0.000001 0.000000 -0.000000 0.000001 0.000000 -0.000000 0.000001 0.000000 0.000000 0.000001 0.000000 0.000000 0.000001 0.000000 -0.000000 0.000001 0.000000 -0.000000 -0.000001 -0.000000 -0.000000 -0.000001 -0.000000 -0.000000 -0.000001 -0.000000 -0.000000 
